<?xml version="1.0" standalone="no"?><!DOCTYPE svg PUBLIC "-//W3C//DTD SVG 1.1//EN" "http://www.w3.org/Graphics/SVG/1.1/DTD/svg11.dtd"><svg t="1710335734434" class="icon" viewBox="0 0 1024 1024" version="1.1" xmlns="http://www.w3.org/2000/svg" p-id="4322" xmlns:xlink="http://www.w3.org/1999/xlink" width="200" height="200"><path d="M501.76 26.944L928 269.44V480h-64V306.56L502.592 101.12 160 306.112V480h-64V269.888L501.76 26.88zM243.2 593.92V576h25.6v17.92h-25.6zM780.8 576v17.92h-25.6V576h25.6z m-537.6 71.744v-17.92h25.6v11.008l9.792 6.4-14.016 21.44-15.552-10.24a12.8 12.8 0 0 1-5.76-10.688z m537.6-17.92v17.92a12.8 12.8 0 0 1-6.08 10.88l-16.384 10.24-13.44-21.76 10.304-6.464v-10.816h25.6z m-55.296 59.392l-32.832 20.352-13.44-21.76 32.768-20.352 13.504 21.76z m-398.528 20.16l-31.232-20.352 14.08-21.44 31.104 20.352-13.952 21.44z m332.928 20.48l-32.832 20.48-13.504-21.76 32.832-20.416 13.44 21.76z m-270.592 20.288l-31.168-20.416 14.016-21.376 31.168 20.352-14.016 21.44z m204.928 20.48l-32.832 20.352-13.44-21.76 32.768-20.352 13.504 21.76z m-142.592 20.224l-31.168-20.352 14.016-21.44 31.168 20.352-14.016 21.44z m76.928 20.48l-16.384 10.24a12.8 12.8 0 0 1-13.76-0.192l-15.552-10.176 13.952-21.44 8.768 5.76 9.472-5.888 13.504 21.76z" p-id="4323" fill="#1296db"></path><path d="M96 576h64v122.304l342.592 223.744 361.408-224.192V576h64v157.44l-426.24 264.512-405.76-264.96V576z" p-id="4324" fill="#1296db"></path><path d="M256 362.688l249.408-149.376L768 362.688V512H256V362.688z" p-id="4325" fill="#1296db"></path><path d="M433.664 440.832a16 16 0 0 1 21.504-7.168l57.984 28.992a16 16 0 0 1-14.336 28.672l-57.984-28.992a16 16 0 0 1-7.168-21.504z" p-id="4326" fill="#1296db"></path><path d="M586.624 440.832a16 16 0 0 0-21.504-7.168l-57.92 28.992a16 16 0 0 0 14.272 28.672l57.984-28.992a16 16 0 0 0 7.168-21.504z" p-id="4327" fill="#1296db"></path><path d="M32 512a32 32 0 0 1 32-32h896a32 32 0 0 1 0 64H64A32 32 0 0 1 32 512z" p-id="4328" fill="#1296db"></path></svg>