<?xml version="1.0" standalone="no"?><!DOCTYPE svg PUBLIC "-//W3C//DTD SVG 1.1//EN" "http://www.w3.org/Graphics/SVG/1.1/DTD/svg11.dtd"><svg t="1710425250919" class="icon" viewBox="0 0 1194 1024" version="1.1" xmlns="http://www.w3.org/2000/svg" p-id="1494" width="233.203125" height="200" xmlns:xlink="http://www.w3.org/1999/xlink"><path d="M934.4 477.013333l-16.64-4.181333c1.194667 12.885333 1.962667 25.941333 1.962667 39.168 0 227.072-183.893333 411.818667-410.026667 411.818667S99.754667 739.072 99.754667 512c0-227.157333 183.893333-411.818667 409.941333-411.818667 68.693333 0 133.461333 17.237333 190.293333 47.36l1.877334-13.397333 79.872-54.613333A504.661333 504.661333 0 0 0 509.696 0C228.181333 0 0 229.205333 0 512s228.181333 512 509.696 512c281.6 0 509.781333-229.205333 509.781333-512a514.56 514.56 0 0 0-8.021333-87.722667l-76.970667 52.650667zM509.781333 322.645333a187.733333 187.733333 0 0 1 34.389334 3.328l101.802666-69.12a285.952 285.952 0 0 0-136.192-34.389333A288.768 288.768 0 0 0 221.610667 512a288.768 288.768 0 0 0 288.085333 289.28 288.768 288.768 0 0 0 286.805333-315.392l-103.850666 70.314667a188.672 188.672 0 0 1-182.954667 145.066666A189.013333 189.013333 0 0 1 321.28 512c0-104.362667 84.48-189.269333 188.416-189.269333zM748.373333 162.986667l-12.8 93.696-272.64 184.832a87.296 87.296 0 0 0 32.597334 157.44c22.613333 4.266667 46.08-0.597333 65.024-13.653334l272.725333-184.746666 91.477333 22.442666 186.538667-127.658666a34.730667 34.730667 0 0 0-12.714667-62.72l-101.461333-20.224a34.645333 34.645333 0 0 1-27.221333-40.106667L988.330667 69.973333a34.730667 34.730667 0 0 0-15.189334-35.242666 34.389333 34.389333 0 0 0-38.229333 0.426666L748.288 162.986667z" fill="#1567cc" p-id="1495"></path></svg>