<?xml version="1.0" standalone="no"?><!DOCTYPE svg PUBLIC "-//W3C//DTD SVG 1.1//EN" "http://www.w3.org/Graphics/SVG/1.1/DTD/svg11.dtd"><svg t="1710425362647" class="icon" viewBox="0 0 1024 1024" version="1.1" xmlns="http://www.w3.org/2000/svg" p-id="6399" width="200" height="200" xmlns:xlink="http://www.w3.org/1999/xlink"><path d="M464.2 59c42-4.5 84.8-1.9 125.9 7.9 69 16.3 132.9 53.1 181.8 104.3 45.6 47.4 78.2 107.3 93.1 171.3 18.3 78.3 10.8 162.6-22.3 236-1 1.6-1.1 3.6 0.2 5.1 42.8 74.2 85.6 148.3 128.5 222.5 4.3 7.2 4.4 16.6 0.4 24-3 5.7-8.5 9.4-14.2 12.2-5.2 2.6-11.4 3-17 1.7-52.2-14.8-104.4-29.8-156.6-44.5-5.1 17.8-9.1 35.9-13.8 53.8-8.2 32.9-16.6 65.8-24.8 98.7-1.1 5-2.5 10.1-5.8 14.1-3.3 4.4-8.4 7-13.3 9.4-10.3 4.5-23.4 0.7-29.5-8.7-34.8-59.7-69-119.7-103.8-179.4-36.3 8.6-73.8 12.3-111.1 10-19.5-1-38.8-3.9-57.9-7.8-34.2 58.7-67.9 117.6-102 176.4-4.4 7.4-13.1 12-21.7 11.4-6 0.1-11.3-3-16.2-6.1-5.1-3.3-8.6-8.7-10-14.5-13.1-52.4-26.3-104.7-39.5-157.1-4.1 0.6-8.1 2.1-12.1 3.1-47.6 13.5-95.3 27.1-142.9 40.7-6.2 1.9-13.2 1.8-19-1.3-5.4-2.7-10.9-6.1-13.8-11.7-4.3-7.4-4.3-17 0-24.3 41-71.1 82.1-142.2 123.1-213.3 1.1-1.4 0.7-3.1-0.1-4.5-16.3-33.6-27.3-69.7-32.7-106.7-10-68.3-1-139.5 26.9-202.8 25.4-58.4 66.3-109.9 117.3-148.1 53.2-39.6 117-64.9 182.9-71.8m34.9 191.3c-8.9 0.3-17.8 1.1-26.6 2.7-46.7 8.2-89.5 36.3-115.7 75.8-15.9 23.6-25.9 51-28.9 79.3-4.6 40.8 5.4 83.1 28.3 117.2 17.9 27.3 43.6 49.4 73.2 63.2 30.8 14.4 65.7 19.5 99.3 14.8 37.2-5 72.6-22.4 99.4-48.7 22.8-22.1 39.5-50.5 47.6-81.3 10.4-39.2 7.1-81.9-9.7-118.8-14.2-31.6-38-58.8-67.3-77.2-29.6-18.6-64.8-28.1-99.6-27z" p-id="6400" fill="#1567cc"></path><path d="M492.7 299.4c34.8-3.3 70.6 8.5 96.6 31.8 27.1 23.7 43.5 59.1 43.5 95.2 0.6 31.7-11.4 63.3-32.6 86.9-23.8 26.9-59.2 43.2-95.1 43.1-34.4 0.6-68.6-13.7-92.6-38.3-24.9-24.9-38.7-60.4-37-95.5 0.9-24.5 9.1-48.7 23.3-68.8 21.3-30.8 56.6-51.3 93.9-54.4z" p-id="6401" fill="#1567cc"></path></svg>